<svg width="840" height="250" viewBox="0 0 840 250" xmlns="http://www.w3.org/2000/svg" role="img" aria-label="mission control">
<defs><linearGradient id="mbg" x1="0" y1="0" x2="1" y2="1"><stop offset="0" stop-color="#0b1020"/><stop offset="1" stop-color="#140b26"/></linearGradient><linearGradient id="bar" x1="0" y1="0" x2="1" y2="0"><stop offset="0" stop-color="#6D28D9"/><stop offset="1" stop-color="#f0abfc"/></linearGradient><filter id="mglow" x="-30%" y="-30%" width="160%" height="160%"><feGaussianBlur stdDeviation="3" result="b"/><feMerge><feMergeNode in="b"/><feMergeNode in="SourceGraphic"/></feMerge></filter></defs>
<rect x="2" y="2" width="836" height="246" rx="14" fill="url(#mbg)" stroke="#7c6cf055" stroke-width="1.5"/>
<text x="26" y="40" font-family="Menlo, monospace" font-size="15" font-weight="700" fill="#f0abfc" filter="url(#mglow)">&#9656; MISSION CONTROL</text>
<text x="814" y="40" text-anchor="end" font-family="Menlo, monospace" font-size="12" fill="#475569">live &#183; auto-updated</text>
<g><rect x="26" y="62" width="190" height="76" rx="10" fill="#111834" stroke="#7c6cf033"/><text x="121" y="94" text-anchor="middle" font-family="Menlo, monospace" font-size="12" fill="#64748b">Followers</text><text x="121" y="122" text-anchor="middle" font-family="Menlo, monospace" font-size="22" font-weight="700" fill="#e2e8f0">0</text></g>
<g><rect x="226" y="62" width="190" height="76" rx="10" fill="#111834" stroke="#7c6cf033"/><text x="321" y="94" text-anchor="middle" font-family="Menlo, monospace" font-size="12" fill="#64748b">Stars</text><text x="321" y="122" text-anchor="middle" font-family="Menlo, monospace" font-size="22" font-weight="700" fill="#e2e8f0">0</text></g>
<g><rect x="426" y="62" width="190" height="76" rx="10" fill="#111834" stroke="#7c6cf033"/><text x="521" y="94" text-anchor="middle" font-family="Menlo, monospace" font-size="12" fill="#64748b">Repos</text><text x="521" y="122" text-anchor="middle" font-family="Menlo, monospace" font-size="22" font-weight="700" fill="#e2e8f0">3</text></g>
<g><rect x="626" y="62" width="190" height="76" rx="10" fill="#111834" stroke="#7c6cf033"/><text x="721" y="94" text-anchor="middle" font-family="Menlo, monospace" font-size="12" fill="#64748b">Contribs (1y)</text><text x="721" y="122" text-anchor="middle" font-family="Menlo, monospace" font-size="22" font-weight="700" fill="#e2e8f0">4</text></g>
<text x="26" y="172" font-family="Menlo, monospace" font-size="13" font-weight="700" fill="#67e8f9">&#9656; LANGUAGES (by bytes, public repos)</text>
<text x="26" y="200" font-family="Menlo, monospace" font-size="12" fill="#94a3b8">TypeScript</text><rect x="130" y="189" width="300" height="10" rx="5" fill="#1e293b"/><rect x="130" y="189" width="176" height="10" rx="5" fill="#3178C6"/><text x="440" y="200" font-family="Menlo, monospace" font-size="12" fill="#64748b">58.7%</text>
<text x="26" y="226" font-family="Menlo, monospace" font-size="12" fill="#94a3b8">Java</text><rect x="130" y="215" width="300" height="10" rx="5" fill="#1e293b"/><rect x="130" y="215" width="80" height="10" rx="5" fill="#b07219"/><text x="440" y="226" font-family="Menlo, monospace" font-size="12" fill="#64748b">26.8%</text>
<text x="26" y="252" font-family="Menlo, monospace" font-size="12" fill="#94a3b8">Go</text><rect x="130" y="241" width="300" height="10" rx="5" fill="#1e293b"/><rect x="130" y="241" width="21" height="10" rx="5" fill="#00ADD8"/><text x="440" y="252" font-family="Menlo, monospace" font-size="12" fill="#64748b">7.3%</text>
<text x="26" y="278" font-family="Menlo, monospace" font-size="12" fill="#94a3b8">Python</text><rect x="130" y="267" width="300" height="10" rx="5" fill="#1e293b"/><rect x="130" y="267" width="11" height="10" rx="5" fill="#3572A5"/><text x="440" y="278" font-family="Menlo, monospace" font-size="12" fill="#64748b">3.8%</text>
<text x="26" y="304" font-family="Menlo, monospace" font-size="12" fill="#94a3b8">Shell</text><rect x="130" y="293" width="300" height="10" rx="5" fill="#1e293b"/><rect x="130" y="293" width="10" height="10" rx="5" fill="#89e051"/><text x="440" y="304" font-family="Menlo, monospace" font-size="12" fill="#64748b">3.5%</text>
</svg>